<?xml version="1.0" encoding="UTF-8"?>
<!DOCTYPE svg PUBLIC "-//W3C//DTD SVG 1.1//EN" "http://www.w3.org/Graphics/SVG/1.1/DTD/svg11.dtd">
<!-- Creator: CorelDRAW X7 -->
<svg xmlns="http://www.w3.org/2000/svg" xml:space="preserve" width="1.75298in" height="1.21082in" version="1.1" style="shape-rendering:geometricPrecision; text-rendering:geometricPrecision; image-rendering:optimizeQuality; fill-rule:evenodd; clip-rule:evenodd"
viewBox="0 0 1220 843"
 xmlns:xlink="http://www.w3.org/1999/xlink">
 <defs>
  <style type="text/css">
   <![CDATA[
    .fil0 {fill:none}
    .fil1 {fill:black}
   ]]>
  </style>
 </defs>
 <g id="Layer_x0020_1">
  <metadata id="CorelCorpID_0Corel-Layer"/>
  <rect class="fil0" width="1220" height="843"/>
  <path class="fil1" d="M95 334l0 123 58 0 6 0 0 6 0 40 0 6 -6 0 -108 0 -6 0 0 -6 0 -169 0 -1 56 0 0 1zm102 21c16,-16 39,-25 67,-25 4,0 8,0 12,0 23,3 43,11 56,27 14,15 21,36 21,64 0,5 0,10 -1,16l0 5 -5 0 -121 0c2,6 6,11 12,15 7,5 17,8 30,8 7,0 15,-1 23,-4 7,-2 13,-6 16,-9l4 -5 5 4 25 26 4 4 -4 4c-8,9 -20,16 -32,20 -14,5 -28,8 -42,8 -29,0 -53,-9 -70,-25 -16,-16 -26,-40 -26,-67 0,-27 10,-50 26,-66zm30 45l74 0c0,0 -4,-25 -37,-26 -17,0 -29,9 -35,23 -1,1 -1,2 -2,3zm302 -62c10,-5 21,-6 32,-6 25,0 44,7 56,21 13,15 19,36 19,62l0 88 0 6 -5 0 -41 0 -5 0 0 -6 0 -88c0,-10 -3,-20 -7,-26 -4,-5 -10,-8 -19,-8 -8,0 -16,3 -21,9 -5,7 -8,16 -8,26l0 87 0 6 -6 0 -41 0 -5 0 0 -6 0 -87c0,-11 -3,-20 -8,-27 -5,-5 -12,-9 -20,-9 -8,0 -14,3 -18,7l0 -50c8,-4 18,-6 26,-6 12,0 23,2 33,9 6,4 12,9 16,16 7,-8 14,-14 22,-18zm-112 -4l4 0 0 9 0 68 0 98 0 0 -6 0 -40 0 -6 0 0 -6 0 -164 0 -5 6 0 37 0 5 0 0 0zm386 28l-68 96 64 0 6 0 0 5 0 40 0 6 -6 0 -137 0 -6 0 0 -6 0 -17 0 -2 1 -1 72 -101 -61 0 -6 0 0 -6 0 -36 0 -6 6 0 131 0 5 0 0 6 0 19 0 2 -1 1zm33 -6c13,-13 31,-22 53,-25 7,-1 13,-1 20,0 24,2 44,12 58,26 16,17 25,40 25,64l0 0c0,26 -9,49 -26,66 -15,16 -38,25 -65,25 -27,0 -50,-9 -65,-25 -17,-16 -26,-40 -26,-66 0,-25 9,-48 26,-65zm37 97c7,6 16,11 28,11 12,0 21,-5 28,-11 7,-8 11,-20 11,-32 0,-11 -5,-22 -12,-30 -7,-8 -16,-12 -27,-12 -12,0 -21,4 -28,11 -7,8 -11,20 -11,31 0,12 4,24 11,32zm308 -36l0 86 0 6 -6 0 -40 0 -6 0 0 -6 0 -86c0,-11 -3,-21 -9,-28 -6,-6 -14,-10 -25,-10 -10,0 -19,5 -25,12 -7,7 -11,17 -11,28l0 84 0 6 -6 0 -40 0 -6 0 0 -6 0 -164 0 -5 6 0 36 0 5 0 1 5 1 11c6,-5 12,-9 19,-12 10,-4 20,-7 31,-7 21,0 41,9 54,25 13,14 21,35 21,61z"/>
 </g>
</svg>
