<?xml version="1.0" encoding="UTF-8"?>
<!DOCTYPE svg PUBLIC "-//W3C//DTD SVG 1.1//EN" "http://www.w3.org/Graphics/SVG/1.1/DTD/svg11.dtd">
<!-- Creator: CorelDRAW X7 -->
<svg xmlns="http://www.w3.org/2000/svg" xml:space="preserve" width="1.75298in" height="1.21082in" version="1.1" style="shape-rendering:geometricPrecision; text-rendering:geometricPrecision; image-rendering:optimizeQuality; fill-rule:evenodd; clip-rule:evenodd"
viewBox="0 0 1220 843"
 xmlns:xlink="http://www.w3.org/1999/xlink">
 <defs>
  <style type="text/css">
   <![CDATA[
    .str2 {stroke:#FEFEFE;stroke-width:1.78387}
    .str3 {stroke:#FEFEFE;stroke-width:1.78661}
    .str0 {stroke:#FEFEFE;stroke-width:5.35709}
    .str1 {stroke:#FEFEFE;stroke-width:5.35709}
    .str4 {stroke:#FEFEFE;stroke-width:6.63676;stroke-linecap:square;stroke-linejoin:bevel}
    .fil0 {fill:none}
    .fil4 {fill:#FEFEFE}
    .fil2 {fill:#FEFEFE}
    .fil3 {fill:#ED3237}
    .fil1 {fill:#676D80}
    .fil5 {fill:#FEFEFE;fill-opacity:0.000000}
   ]]>
  </style>
 </defs>
 <g id="Layer_x0020_1">
  <metadata id="CorelCorpID_0Corel-Layer"/>
  <rect class="fil0" width="1220" height="843"/>
  <g id="_1496782088944">
   <g>
    <polygon class="fil1" points="312,124 908,124 908,719 312,719 "/>
    <path id="1" class="fil2" d="M312 107l596 0 16 0 0 17 0 595 0 16 -16 0 -596 0 -16 0 0 -16 0 -595 0 -17 16 0zm0 17l596 0 0 595 -596 0 0 -595z"/>
   </g>
   <polygon class="fil3" points="312,654 908,654 908,689 312,689 "/>
   <path class="fil0 str0" d="M857 150c13,0 24,11 24,24 0,13 -11,24 -24,24 -13,0 -24,-11 -24,-24 0,-13 11,-24 24,-24z"/>
   <path class="fil0 str1" d="M796 150c13,0 24,11 24,24 0,13 -11,24 -24,24 -13,0 -24,-11 -24,-24 0,-13 11,-24 24,-24z"/>
   <path class="fil4 str2" d="M785 187l0 -25 11 0c2,0 4,0 5,0 1,1 2,2 3,3 1,1 1,2 1,4 0,1 -1,3 -2,4 -1,1 -3,2 -5,2 1,1 2,1 2,2 1,1 2,2 3,3l4 7 -4 0 -3 -5c-1,-2 -2,-3 -3,-4 0,-1 -1,-1 -1,-1 -1,-1 -1,-1 -2,-1 0,0 -1,0 -2,0l-4 0 0 11 -3 0zm3 -14l8 0c1,0 2,0 3,-1 1,0 2,0 2,-1 0,-1 1,-2 1,-2 0,-2 -1,-3 -2,-3 -1,-1 -2,-2 -4,-2l-8 0 0 9z"/>
   <path class="fil4 str3" d="M865 178l3 1c0,3 -2,5 -3,6 -2,2 -5,3 -7,3 -3,0 -5,-1 -7,-2 -2,-1 -3,-3 -4,-5 -1,-2 -1,-4 -1,-7 0,-3 0,-5 1,-7 1,-2 3,-3 5,-4 2,-1 4,-2 6,-2 2,0 5,1 6,2 2,1 3,3 4,6l-3 0c-1,-2 -2,-3 -3,-4 -1,-1 -2,-1 -4,-1 -2,0 -4,0 -5,1 -1,1 -2,3 -3,4 0,2 -1,3 -1,5 0,2 1,4 1,6 1,1 2,3 3,3 2,1 3,2 5,2 1,0 3,-1 4,-2 2,-1 2,-3 3,-5z"/>
   <g>
    <path class="fil5" d="M790 271c20,31 32,68 34,107 -4,-16 -19,-27 -36,-27 -16,0 -30,10 -36,23 -2,-20 -8,-40 -18,-57 12,8 29,8 42,-2 14,-10 19,-28 14,-44zm-104 -83c36,14 67,37 91,66 -13,-10 -32,-11 -46,0 -13,9 -18,25 -14,40 -14,-16 -30,-28 -49,-36 15,-1 28,-11 33,-26 6,-17 -1,-35 -15,-44zm-200 129c-10,17 -16,37 -18,57 -6,-13 -20,-23 -36,-23 -17,0 -32,11 -36,27 2,-39 14,-76 35,-107 -6,16 -1,34 13,44 13,10 30,10 42,2zm66 -59c-18,8 -35,20 -49,36 4,-15 -1,-31 -14,-40 -14,-11 -33,-10 -46,0 24,-29 55,-52 91,-66 -14,9 -21,27 -15,44 5,15 18,25 33,26zm58 -84c20,0 38,3 56,8 -16,-1 -32,10 -37,26 -5,15 0,31 11,41 -9,-2 -20,-3 -30,-3 -10,0 -20,1 -30,3 11,-10 16,-26 11,-41 -5,-16 -21,-27 -37,-26 18,-5 37,-8 56,-8zm-238 204c6,-127 110,-228 238,-228 128,0 233,101 238,228m-357 0c6,-61 57,-108 119,-108 62,0 113,47 119,108"/>
    <path id="1" class="fil0 str4" d="M790 271c20,31 32,68 34,107 -4,-16 -19,-27 -36,-27 -16,0 -30,10 -36,23 -2,-20 -8,-40 -18,-57 12,8 29,8 42,-2 14,-10 19,-28 14,-44zm-104 -83c36,14 67,37 91,66 -13,-10 -32,-11 -46,0 -13,9 -18,25 -14,40 -14,-16 -30,-28 -49,-36 15,-1 28,-11 33,-26 6,-17 -1,-35 -15,-44zm-200 129c-10,17 -16,37 -18,57 -6,-13 -20,-23 -36,-23 -17,0 -32,11 -36,27 2,-39 14,-76 35,-107 -6,16 -1,34 13,44 13,10 30,10 42,2zm66 -59c-18,8 -35,20 -49,36 4,-15 -1,-31 -14,-40 -14,-11 -33,-10 -46,0 24,-29 55,-52 91,-66 -14,9 -21,27 -15,44 5,15 18,25 33,26zm58 -84c20,0 38,3 56,8 -16,-1 -32,10 -37,26 -5,15 0,31 11,41 -9,-2 -20,-3 -30,-3 -10,0 -20,1 -30,3 11,-10 16,-26 11,-41 -5,-16 -21,-27 -37,-26 18,-5 37,-8 56,-8zm-238 204c6,-127 110,-228 238,-228 128,0 233,101 238,228m-357 0c6,-61 57,-108 119,-108 62,0 113,47 119,108"/>
   </g>
   <path class="fil4" d="M398 607c6,0 11,0 11,5 0,5 -4,6 -9,6l-8 0 0 -11 6 0zm0 -20c5,0 8,0 8,4 0,4 -2,5 -6,5l-8 0 0 -9 6 0zm3 44c16,0 26,-4 26,-17 0,-7 -4,-12 -10,-14 4,-2 8,-6 8,-12 0,-12 -11,-15 -24,-15l-29 0 0 58 29 0zm86 0l0 -13 -30 0 0 -10 24 0 0 -13 -24 0 0 -8 29 0 0 -14 -49 0 0 58 50 0zm42 -20l-12 0 6 -20 6 20zm-18 20l2 -7 20 0 2 7 19 0 -21 -58 -20 0 -21 58 19 0zm69 -44l9 0c5,0 8,2 8,6 0,4 -3,5 -9,5l-8 0 0 -11zm6 24c9,0 10,2 10,10 0,5 1,9 1,10l20 0 0 -2c-2,0 -2,-2 -2,-10 0,-11 -4,-13 -10,-15 7,-2 10,-8 10,-14 0,-12 -6,-17 -26,-17l-29 0 0 58 20 0 0 -20 6 0zm60 20l0 -58 -20 0 0 58 20 0zm30 -58l-18 0 0 58 19 0 0 -18 -1 -13 22 31 18 0 0 -58 -19 0 0 19 1 13 -22 -32zm109 26l-27 0 0 13 9 0c-1,4 -6,6 -10,6 -10,0 -13,-7 -13,-15 0,-11 4,-17 12,-17 5,0 9,2 10,7l19 0c-3,-14 -14,-22 -29,-22 -19,0 -31,13 -31,32 0,20 14,30 29,30 9,0 15,-4 18,-7l1 5 12 0 0 -32zm62 -9c-2,-10 -9,-19 -26,-19 -15,0 -26,7 -26,19 0,22 34,16 34,25 0,3 -3,4 -8,4 -2,0 -4,0 -5,-1 -2,-1 -3,-3 -4,-5l-18 0c0,11 10,20 26,20 17,0 28,-7 28,-20 0,-21 -34,-16 -34,-25 0,-2 2,-3 6,-3 2,0 4,0 5,1 1,1 3,2 3,4l19 0z"/>
   <path class="fil3" d="M372 553l50 0 0 -48 12 -12 37 60 61 0 -62 -94 56 -56 -59 0 -45 49 0 -49 -50 0 0 150zm307 0l0 -35 -78 0 0 -24 63 0 0 -35 -63 0 0 -21 75 0 0 -35 -126 0 0 150 129 0zm168 -93c-4,-38 -30,-61 -77,-61 -43,0 -77,30 -77,79 0,48 31,79 82,79 40,0 69,-24 73,-62l-48 0c-2,14 -10,25 -26,25 -26,0 -31,-20 -31,-41 0,-29 11,-43 29,-43 16,0 26,9 27,24l48 0z"/>
  </g>
 </g>
</svg>
