<?xml version="1.0" encoding="UTF-8"?>
<!DOCTYPE svg PUBLIC "-//W3C//DTD SVG 1.1//EN" "http://www.w3.org/Graphics/SVG/1.1/DTD/svg11.dtd">
<!-- Creator: CorelDRAW X7 -->
<svg xmlns="http://www.w3.org/2000/svg" xml:space="preserve" width="1.75298in" height="1.21082in" version="1.1" style="shape-rendering:geometricPrecision; text-rendering:geometricPrecision; image-rendering:optimizeQuality; fill-rule:evenodd; clip-rule:evenodd"
viewBox="0 0 1220 843"
 xmlns:xlink="http://www.w3.org/1999/xlink">
 <defs>
  <style type="text/css">
   <![CDATA[
    .fil0 {fill:none}
    .fil1 {fill:#B27A5F}
    .fil2 {fill:#B27A5F;fill-rule:nonzero}
   ]]>
  </style>
 </defs>
 <g id="Layer_x0020_1">
  <metadata id="CorelCorpID_0Corel-Layer"/>
  <rect class="fil0" width="1220" height="843"/>
  <g id="_1496782309328">
   <path class="fil1" d="M588 646l0 -449 -448 0 0 449 448 0zm33 -116l0 56c0,9 2,16 5,21 3,5 9,7 16,7 6,0 11,-2 15,-7 3,-4 5,-10 5,-18l0 -59 22 0 0 59c0,15 -4,27 -12,35 -7,8 -18,12 -32,12 -13,0 -24,-4 -32,-12 -7,-8 -11,-20 -11,-35l0 -59 24 0zm107 103l0 -82 -33 0 0 -21 90 0 0 21 -32 0 0 82 -25 0zm69 0l0 -103 25 0 0 103 -25 0zm36 -52c0,-7 1,-15 4,-21 2,-7 6,-13 11,-18 5,-5 11,-9 17,-12 7,-3 13,-4 20,-4 7,0 14,2 21,4 6,3 12,7 17,12 5,5 9,11 11,18 3,6 4,13 4,21 0,7 -1,13 -2,19 -2,5 -5,11 -9,15 -5,7 -11,12 -18,16 -7,4 -15,5 -24,5 -7,0 -13,-1 -20,-4 -6,-2 -12,-6 -17,-11 -5,-5 -9,-11 -11,-18 -3,-7 -4,-14 -4,-22zm0 0l0 0zm25 0c0,9 3,17 8,23 5,6 12,9 19,9 8,0 15,-3 20,-9 5,-6 8,-14 8,-23 0,-9 -3,-16 -8,-22 -5,-7 -12,-10 -20,-10 -7,0 -14,3 -19,10 -5,6 -8,13 -8,22zm92 55l0 -106 3 0 64 60 0 -57 23 0 0 107 -2 0 -65 -60 0 56 -23 0zm-590 -55c0,-7 1,-15 4,-21 2,-7 6,-13 11,-18 5,-5 11,-9 17,-12 7,-3 14,-4 21,-4 7,0 13,2 20,4 6,3 12,7 17,12 5,5 9,11 12,18 2,6 4,13 4,21 0,7 -1,13 -3,19 -2,5 -5,11 -8,15 -5,7 -12,12 -19,16 -7,4 -15,5 -23,5 -7,0 -14,-1 -20,-4 -7,-2 -13,-6 -18,-11 -5,-5 -9,-11 -11,-18 -3,-7 -4,-14 -4,-22zm0 0l0 0zm25 0c0,9 3,17 8,23 6,6 12,9 20,9 7,0 14,-3 19,-9 5,-6 8,-14 8,-23 0,-9 -3,-16 -8,-22 -5,-7 -12,-10 -19,-10 -8,0 -14,3 -20,10 -5,6 -8,13 -8,22zm-71 56l-2 0 -48 -107 26 0 24 56 25 -56 24 0 -49 107zm159 -4l0 -25 79 0 0 -78 25 0 0 103 -104 0zm-320 -25l0 25 99 0 0 -25 -99 0zm0 -78l0 24 99 0 0 -24 -99 0zm0 39l0 25 99 0 0 -25 -99 0z"/>
   <path class="fil2" d="M1059 483c6,0 11,2 15,6l0 0 0 0c4,4 6,9 6,15 0,6 -2,12 -6,16 -4,4 -9,6 -15,6 -6,0 -12,-2 -16,-6l0 0c-4,-4 -6,-10 -6,-16 0,-6 2,-11 6,-15 4,-4 10,-6 16,-6zm9 36l-8 -13c2,0 4,-1 5,-3 2,-1 2,-3 2,-5 0,-2 0,-4 -2,-6 -2,-1 -4,-2 -7,-2l-9 0 0 29 3 0 0 -12 6 0 7 12 3 0zm-10 -27c4,0 7,3 7,6 0,4 -3,6 -7,6l-6 0 0 -12 6 0zm14 -1c-3,-4 -8,-6 -13,-6 -6,0 -10,2 -14,6 -3,3 -5,8 -5,13 0,6 2,10 5,14 4,3 8,5 14,5 5,0 10,-2 13,-5 4,-4 6,-8 6,-14 0,-5 -2,-10 -6,-13l0 0z"/>
  </g>
 </g>
</svg>
