<?xml version="1.0" encoding="UTF-8"?>
<!DOCTYPE svg PUBLIC "-//W3C//DTD SVG 1.1//EN" "http://www.w3.org/Graphics/SVG/1.1/DTD/svg11.dtd">
<!-- Creator: CorelDRAW X7 -->
<svg xmlns="http://www.w3.org/2000/svg" xml:space="preserve" width="1.75298in" height="1.21082in" version="1.1" style="shape-rendering:geometricPrecision; text-rendering:geometricPrecision; image-rendering:optimizeQuality; fill-rule:evenodd; clip-rule:evenodd"
viewBox="0 0 1220 843"
 xmlns:xlink="http://www.w3.org/1999/xlink">
 <defs>
  <style type="text/css">
   <![CDATA[
    .fil0 {fill:none}
    .fil1 {fill:black}
    .fil2 {fill:#005555}
   ]]>
  </style>
 </defs>
 <g id="Layer_x0020_1">
  <metadata id="CorelCorpID_0Corel-Layer"/>
  <rect class="fil0" width="1220" height="843"/>
  <g id="_1460870235392">
   <path class="fil1" d="M600 159l0 339c0,2 3,1 4,1 15,-1 32,-5 46,-11 8,-2 15,-5 22,-9 3,-2 7,-4 10,-6 0,-1 1,-1 1,-1l20 -15c1,0 1,-1 2,-2l8 -7c3,-4 6,-7 10,-12l9 -12c4,-6 7,-12 10,-18 1,-1 1,-1 1,-2 6,-10 12,-27 14,-38 2,-12 4,-23 4,-37 0,-4 0,-7 0,-11 0,-3 -1,-6 -1,-9l-80 0 0 39 41 0c0,8 -6,24 -9,32 -4,9 -9,18 -15,26 -3,5 -7,9 -11,14l-1 1c0,0 0,0 0,0l-13 11c-1,1 -2,2 -3,3 -2,1 -3,1 -4,2 -4,3 -9,6 -13,9l-14 6 0 -247c2,1 4,2 6,3 7,3 15,7 21,12 1,0 2,1 3,1 5,4 10,9 15,14 2,1 3,2 4,4l4 4c1,2 3,3 4,5 4,5 8,11 11,17 1,1 1,2 2,3l42 0c-2,-4 -3,-8 -5,-12 0,0 0,-1 -1,-2 0,-1 0,-1 -1,-2 -6,-12 -13,-23 -21,-33 -1,-1 -2,-1 -2,-2 -1,-1 -9,-9 -10,-11l-6 -6c-5,-4 -11,-9 -16,-12 -1,-1 -2,-1 -3,-2 -1,0 -1,-1 -2,-1 -4,-3 -9,-6 -13,-8l-4 -2c-1,0 -1,0 -2,-1 -6,-3 -12,-5 -18,-7l-18 -5c-5,-1 -9,-2 -14,-3 -1,0 -2,0 -3,0 -2,-1 -3,-1 -4,-1 -1,0 -2,0 -4,0 -1,0 -3,-1 -3,1z"/>
   <path class="fil1" d="M542 165l0 144 -83 0c1,-6 4,-18 7,-25 3,-10 8,-19 14,-28l10 -13c3,-4 4,-5 9,-10 3,-3 2,-3 2,-8 0,-14 0,-28 0,-42 -2,0 -7,4 -9,5 -4,3 -8,6 -12,9 0,1 -1,1 -2,2 0,1 -1,1 -2,2l-14 14c-4,4 -7,9 -11,14 0,1 -1,1 -1,2 -2,3 -4,5 -6,9l-9 16c-3,7 -6,15 -8,23 -3,7 -4,15 -6,23 -1,7 -2,19 -2,26 0,19 3,38 9,55 3,9 6,17 11,25l14 22c1,1 2,3 3,4l8 9c0,1 0,1 0,1l1 1c2,3 5,5 7,7l4 4c5,5 15,12 20,15l5 3 0 -48c-1,-1 -7,-6 -8,-8l-3 -4c-3,-3 -6,-6 -8,-10 -9,-11 -14,-24 -18,-38 -1,-2 -2,-3 -2,-5 -1,-3 -1,-4 -1,-7 -1,-1 -1,-4 -2,-6l83 0 0 144c0,1 3,1 4,2 1,0 3,0 4,1 7,1 13,2 19,3 4,1 7,0 11,1 0,-50 0,-99 0,-149l0 -191c0,-2 -2,-1 -4,-1 -2,0 -4,0 -6,1 -8,0 -16,2 -24,4 -1,1 -4,1 -4,2z"/>
   <path class="fil1" d="M892 562c0,7 0,12 5,19 2,1 4,3 5,4 5,3 9,4 14,5 6,1 39,0 47,0 5,0 10,1 13,4 10,8 2,21 -10,21l-72 0 0 16 72 0c7,0 16,-3 21,-8 2,-3 4,-4 6,-8 4,-9 3,-21 -3,-29 -1,-1 -1,-2 -2,-3 -5,-6 -15,-9 -25,-9 -5,0 -43,0 -46,-1 -9,-2 -9,-12 -4,-15 2,-1 4,-3 7,-3l70 0 0 -16 -71 0c-9,0 -20,5 -24,13 -1,3 -3,7 -3,10z"/>
   <path class="fil1" d="M676 631l16 0 0 -76 55 0c23,0 24,23 12,31 -2,1 -5,2 -7,2 -5,1 -37,1 -46,1 -6,0 -4,-3 -4,16 0,1 2,0 5,0l28 0c2,0 2,1 4,3 4,5 15,16 21,21 2,2 1,2 4,2l21 0 -27 -28c1,0 4,-1 6,-2 14,-6 22,-20 19,-35 -3,-13 -12,-21 -24,-25 -4,-1 -9,-2 -14,-2l-69 0 0 92z"/>
   <path class="fil1" d="M559 583c0,4 0,8 1,12 2,8 3,11 8,18 1,1 3,3 4,4l2 2c0,0 0,0 0,0 0,0 0,0 0,0l4 3c6,5 16,9 25,9l61 0 0 -51 -60 0 0 14c0,1 0,1 1,1l42 0 0 20 -44 0c-8,0 -15,-4 -20,-9 -12,-12 -12,-38 9,-48 3,-1 8,-3 12,-3l53 0 0 -16 -54 0c-7,0 -14,2 -18,4 -5,2 -9,5 -13,9 -9,8 -13,19 -13,31z"/>
   <path class="fil1" d="M505 615l-38 0 0 -60 36 0c14,0 26,9 29,23 0,4 1,9 0,13 -2,10 -7,16 -15,21 -3,1 -8,3 -12,3zm-54 16l53 0c10,0 19,-3 26,-8 8,-6 13,-14 16,-23 1,-3 2,-7 2,-9 1,-4 0,-12 0,-16 0,-2 -1,-3 -1,-5 -2,-7 -4,-10 -9,-16 -4,-4 -9,-8 -15,-11 -5,-2 -11,-4 -18,-4l-54 0 0 92z"/>
   <path class="fil1" d="M335 547l0 84 16 0 0 -63 29 28c0,0 0,1 0,1l8 8c6,6 12,12 19,18 3,3 6,7 10,9 7,1 9,-3 9,-9l0 -84 -16 0 0 63c-2,-1 -52,-51 -57,-56 -4,-4 -6,-7 -12,-7 -3,0 -6,4 -6,8z"/>
   <polygon class="fil1" points="800,631 879,631 879,615 816,615 816,555 879,555 879,539 800,539 "/>
   <path class="fil1" d="M262 577l-54 0 0 16 53 0c1,0 1,0 1,1l0 37 16 0 0 -92 -16 0 0 38z"/>
   <polygon class="fil1" points="297,631 313,631 313,539 297,539 "/>
   <polygon class="fil1" points="185,631 201,631 201,539 185,539 "/>
   <polygon class="fil1" points="823,593 875,593 875,576 823,576 "/>
   <path class="fil1" d="M275 681l-11 0 0 -21c15,0 23,-2 23,11 0,3 -1,6 -3,7 -2,2 -5,3 -9,3zm-2 4l-13 0c-1,0 -1,0 -1,-1l0 -28c0,0 0,-1 1,-1 5,0 18,0 23,1 12,4 14,25 -2,28 -1,1 -4,1 -8,1z"/>
   <path class="fil1" d="M635 684c0,1 1,1 1,1l27 0c2,0 1,-1 1,-4 0,0 0,0 -1,0l-22 0 0 -9 14 0c0,-3 0,-5 -1,-5l-13 0 0 -7 23 0 0 -5 -29 0 0 29z"/>
   <path class="fil1" d="M501 667l0 12c0,5 2,6 7,6l15 0c8,0 7,-4 7,-13 0,-1 0,-1 -1,-1l-14 0 0 4 10 0 0 6 -19 0 0 -16c0,0 0,-1 1,-1l17 0c1,0 1,1 1,4 1,0 4,-1 5,-1 0,-4 -1,-6 -5,-6l-19 0c-4,0 -5,2 -5,6z"/>
   <path class="fil1" d="M710 667c0,5 0,8 5,8l16 0 0 6 -18 0 0 -3c-1,0 -1,0 -2,0 -2,0 -2,0 -2,2 0,4 2,5 7,5l12 0c8,0 7,-3 7,-9 0,-4 -2,-6 -6,-6l-15 0 0 -6 17 0 0 4c1,-1 3,-1 4,-1 0,-4 -1,-6 -4,-6l-17 0c-4,0 -4,3 -4,6z"/>
   <path class="fil1" d="M582 675l16 0 0 6 -18 0 0 -3c-1,0 -4,0 -4,0 -1,1 -1,3 0,4 1,3 4,3 7,3l12 0c8,0 7,-3 7,-10 0,-4 -2,-5 -6,-5l-15 0c0,-3 -1,-6 1,-6 18,0 15,-1 15,4 2,-1 4,-1 5,-1 0,-4 -1,-6 -5,-6l-16 0c-2,0 -3,0 -4,2 0,0 -1,4 -1,5 0,1 1,4 1,5 1,1 3,2 5,2z"/>
   <path class="fil1" d="M674 665c0,3 -1,7 1,8 1,1 2,2 4,2l16 0 0 6 -18 0 0 -3c-1,0 -4,0 -4,0 -1,1 0,3 0,4 1,3 4,3 7,3l12 0c8,0 7,-3 7,-10 0,-4 -3,-5 -6,-5l-15 0c0,-3 -1,-6 1,-6 18,0 16,-1 16,4 1,0 2,-1 4,-1 0,-4 -1,-6 -5,-6l-15 0c-3,0 -5,1 -5,4z"/>
   <path class="fil1" d="M321 672l-14 0 0 -8c3,0 13,0 15,1 0,1 1,7 -1,7zm8 13l-1 0 0 0 -4 0c-1,0 -2,-1 -6,-5 -5,-5 -3,-5 -11,-5l0 10 -4 0c0,0 -1,0 -1,-1l0 -23 21 0c3,0 4,2 4,6 0,8 0,8 -8,8 1,1 7,6 8,7l2 3c0,0 0,0 0,0z"/>
   <path class="fil1" d="M406 684c0,1 0,1 0,1l4 0 0 -18c1,3 7,9 9,12 3,4 3,2 11,-8l2 -4 0 14c0,3 0,4 1,4l3 0c1,0 1,0 1,-1l0 -23c-6,0 -4,-1 -7,3 -1,2 -8,11 -8,12 -1,0 -1,0 -1,-1 0,0 -1,0 -1,-1 0,0 -1,-1 -1,-2l-8 -9c-2,-3 -1,-2 -5,-2l0 23z"/>
   <path class="fil1" d="M463 684c0,1 0,1 1,1l3 0c0,0 1,0 1,-1l0 -16c0,-1 -1,-1 -1,-2 3,3 9,8 12,11 0,1 1,1 1,1 2,2 8,7 9,7l2 0c0,0 0,0 0,-1l0 -23 -4 0 0 16c0,1 0,1 0,2 -1,-1 -1,-2 -2,-2l-3 -3c-2,-2 -10,-9 -13,-11 -2,-3 -2,-2 -6,-2l0 23z"/>
   <path class="fil1" d="M783 666l14 13c1,1 6,6 7,6l2 0c0,0 1,0 1,-1l0 -23 -5 0 0 15c0,2 0,2 1,3 -1,0 -2,-2 -3,-2l-2 -3c-1,-1 -2,-1 -3,-2l-10 -9c-3,-3 -2,-2 -6,-2l0 23c0,1 0,1 0,1l3 0c2,0 1,-2 1,-4 0,-1 0,-13 0,-14l0 -1z"/>
   <path class="fil1" d="M751 674c1,0 9,0 11,0l0 -3c-2,0 -10,0 -12,-1 0,-7 0,-6 7,-6 5,0 9,0 13,0l0 -3 -24 0c0,6 -1,17 0,23 0,1 0,1 0,1l24 0c0,0 0,0 0,-1 1,0 0,-2 0,-2 0,-1 0,-1 -1,-1 -6,0 -12,0 -19,0 0,-2 0,-5 1,-7z"/>
   <path class="fil1" d="M342 674c1,0 10,0 12,0l0 -3c-3,0 -11,0 -12,-1 0,-1 -1,-5 0,-5 1,-1 18,-1 20,-1l0 -3 -25 0 0 24 24 0c1,0 1,-1 1,-4 -5,0 -9,0 -14,0 -1,0 -5,1 -6,0 -1,-1 0,-5 0,-7z"/>
   <path class="fil1" d="M875 665c0,0 1,2 1,2l5 9 -12 0c0,-1 2,-5 3,-6 0,-1 2,-5 3,-5zm-15 20l3 0c2,0 3,-6 4,-6l15 0c1,0 3,4 4,6l5 0c0,-2 -11,-20 -13,-23 -1,-2 -1,-1 -5,-1 -1,0 -1,0 -1,1l-12 20c-1,2 -2,3 0,3z"/>
   <path class="fil1" d="M382 665c1,0 6,10 6,11l-12 0c0,-1 1,-2 2,-3 0,-1 1,-2 1,-3 1,-1 1,-1 2,-2 0,-2 1,-2 1,-3zm16 20l-4 0c0,0 -1,0 -1,-1l-2 -5 -17 0c-1,2 -2,4 -3,6l-5 0c1,-1 6,-11 7,-12 1,-2 7,-11 7,-12l5 0c0,1 1,2 1,3l12 20c1,1 1,1 0,1z"/>
   <path class="fil1" d="M1017 519l-3 0 0 -4c2,0 5,0 5,2 0,1 -1,2 -2,2zm-8 -8l0 17 5 0 0 -5c2,0 2,0 3,2 1,1 2,2 2,3l6 0c-1,-1 -2,-2 -2,-3 -1,-1 -1,-1 -1,-2 -1,0 -1,0 -1,-1 4,-1 4,-8 1,-10 -2,-2 -9,-1 -12,-1 -1,0 -1,0 -1,0z"/>
   <path class="fil1" d="M1017 535c-6,0 -12,-4 -14,-8 -5,-9 0,-24 15,-24 5,0 10,4 12,7 7,11 0,25 -13,25zm-18 -16c0,8 4,13 10,17 10,5 26,-2 26,-17 0,-6 -3,-11 -8,-14 -7,-5 -17,-5 -23,1 -2,3 -5,8 -5,13z"/>
   <path class="fil1" d="M813 664l11 0c0,0 1,1 1,1l0 20 4 0c0,0 0,0 0,-1l0 -20 11 0c1,0 1,-1 1,-3l-28 0 0 3z"/>
   <path class="fil1" d="M898 685l23 0c0,0 1,0 1,-1l0 -3 -19 0 0 -20 -5 0 0 24z"/>
   <path class="fil1" d="M448 684c0,1 0,1 0,1l4 0 0 -24 -4 0 0 23z"/>
   <path class="fil1" d="M561 684c0,1 0,1 0,1l4 0c0,0 0,0 0,-1l0 -23 -4 0 0 23z"/>
   <path class="fil1" d="M847 684c0,1 0,1 1,1l3 0c1,0 1,0 1,-1l0 -23 -5 0 0 23z"/>
   <path class="fil2" d="M751 674c2,0 9,1 11,0 0,-1 1,-3 0,-3 0,-1 -3,-1 -3,-1 -3,0 -6,0 -9,0 2,1 10,1 12,1l0 3c-2,0 -10,0 -11,0z"/>
   <path class="fil2" d="M342 674l12 0 0 -4 -12 0c1,1 9,1 12,1l0 3c-2,0 -11,0 -12,0z"/>
  </g>
 </g>
</svg>
