<?xml version="1.0" encoding="UTF-8"?>
<!DOCTYPE svg PUBLIC "-//W3C//DTD SVG 1.1//EN" "http://www.w3.org/Graphics/SVG/1.1/DTD/svg11.dtd">
<!-- Creator: CorelDRAW X7 -->
<svg xmlns="http://www.w3.org/2000/svg" xml:space="preserve" width="1.75298in" height="1.21082in" version="1.1" style="shape-rendering:geometricPrecision; text-rendering:geometricPrecision; image-rendering:optimizeQuality; fill-rule:evenodd; clip-rule:evenodd"
viewBox="0 0 1220 843"
 xmlns:xlink="http://www.w3.org/1999/xlink">
 <defs>
  <style type="text/css">
   <![CDATA[
    .fil0 {fill:none}
    .fil1 {fill:#355CA7}
    .fil2 {fill:black}
   ]]>
  </style>
 </defs>
 <g id="Layer_x0020_1">
  <metadata id="CorelCorpID_0Corel-Layer"/>
  <rect class="fil0" width="1220" height="843"/>
  <g id="_1460899989440">
   <path class="fil1" d="M209 251c57,0 108,28 139,72l-23 0c-27,-33 -69,-55 -116,-55 -84,0 -152,69 -152,153 0,85 68,153 152,153 47,0 88,-21 116,-54l23 0c-31,44 -82,72 -139,72 -94,0 -170,-76 -170,-171 0,-94 76,-170 170,-170z"/>
   <path class="fil1" d="M211 414c-7,-7 -12,-17 -12,-30 0,-12 5,-23 12,-29 8,6 12,17 12,29 0,13 -4,23 -12,30z"/>
   <path class="fil1" d="M217 418c2,-10 9,-19 19,-25 10,-5 21,-7 30,-4 -2,10 -8,19 -18,25 -10,5 -22,7 -31,4z"/>
   <path class="fil1" d="M217 424c9,-2 19,-1 29,4 10,6 16,14 18,23 -9,3 -19,2 -29,-3 -10,-6 -16,-14 -18,-24z"/>
   <path class="fil1" d="M211 488c-7,-7 -12,-18 -12,-30 0,-12 5,-23 12,-30 8,7 12,18 12,30 0,12 -4,23 -12,30z"/>
   <path class="fil1" d="M156 453c2,-9 9,-18 19,-24 10,-6 21,-7 30,-4 -2,9 -8,18 -18,24 -10,6 -22,7 -31,4z"/>
   <path class="fil1" d="M158 391c9,-3 20,-2 29,4 10,5 16,14 19,23 -9,3 -20,2 -30,-4 -9,-5 -16,-14 -18,-23z"/>
   <path class="fil1" d="M212 322c14,0 26,8 32,19 -3,0 -6,-1 -9,-1 -9,0 -17,4 -24,10 -6,-6 -15,-10 -24,-10 -2,0 -5,1 -7,1 6,-11 18,-19 32,-19z"/>
   <path class="fil1" d="M298 371c7,12 6,27 -1,38 -1,-3 -2,-5 -4,-8 -4,-8 -11,-14 -20,-16 2,-9 1,-18 -4,-26 -1,-2 -2,-4 -4,-6 13,0 26,6 33,18z"/>
   <path class="fil1" d="M298 471c-7,12 -20,18 -33,17 2,-2 3,-4 5,-6 5,-8 6,-17 4,-26 8,-2 15,-8 20,-16 1,-2 2,-4 3,-7 7,11 8,26 1,38z"/>
   <path class="fil1" d="M212 520c14,0 26,-8 32,-19 -3,0 -6,1 -9,1 -9,0 -17,-4 -24,-10 -6,6 -15,10 -24,10 -2,0 -5,-1 -7,-1 6,11 18,19 32,19z"/>
   <path class="fil1" d="M126 471c7,12 20,18 33,17 -2,-2 -4,-4 -5,-6 -5,-8 -6,-17 -4,-26 -8,-2 -16,-8 -20,-16 -2,-2 -3,-4 -3,-7 -7,11 -8,26 -1,38z"/>
   <path class="fil1" d="M126 371c-7,12 -6,27 1,38 1,-3 2,-5 3,-8 5,-8 12,-14 20,-16 -2,-9 0,-18 4,-26 1,-2 3,-4 5,-6 -13,0 -26,6 -33,18z"/>
   <path class="fil2" d="M522 339l1 -13 6 0c0,2 0,4 0,6 -1,14 -1,23 -1,29 0,3 0,9 0,19 1,4 1,7 1,9l-6 0c-1,-20 -5,-35 -12,-46 -6,-11 -15,-16 -26,-16 -13,0 -23,7 -30,21 -6,14 -10,35 -10,63 0,27 4,48 11,63 7,15 18,22 31,22 10,0 18,-4 24,-11 6,-8 11,-18 13,-31l6 0c-1,17 -6,31 -15,41 -8,9 -20,14 -33,14 -19,0 -34,-8 -45,-26 -11,-17 -17,-40 -17,-69 0,-29 6,-52 18,-70 11,-19 26,-28 44,-28 8,0 15,2 22,6 7,4 13,10 18,17zm124 -21c1,6 1,13 1,21 0,7 1,17 1,29l-5 0c-2,-15 -4,-26 -8,-31 -4,-5 -12,-8 -23,-8l-27 0 0 73 12 0c8,0 13,-2 15,-5 2,-4 3,-12 4,-24l6 0c0,3 0,6 -1,11 0,12 0,20 0,24 0,7 0,18 1,34 0,3 0,4 0,5l-6 0c-1,-14 -2,-24 -4,-28 -2,-4 -7,-6 -15,-6l-12 0 0 83 33 0c12,0 20,-3 24,-9 4,-6 7,-18 8,-35l6 0c-1,10 -1,20 -2,29 0,9 0,18 -1,26l-105 0 0 -10c7,0 11,-2 12,-4 2,-3 3,-9 3,-18l0 -124c0,-10 -1,-16 -3,-18 -1,-2 -5,-4 -12,-4l0 -10 23 0c15,0 30,0 42,-1 13,0 24,0 33,0zm62 89c2,0 3,0 4,0 2,0 4,0 6,0 10,0 18,-3 22,-9 5,-7 7,-17 7,-31 0,-13 -2,-23 -7,-29 -4,-6 -11,-9 -21,-9 -2,0 -5,0 -10,0 0,0 -1,0 -1,1l0 77zm-37 -88c4,0 8,0 12,0 4,0 8,0 12,0 3,0 8,0 14,0 6,0 11,0 14,0 16,0 27,3 35,11 8,8 12,19 12,34 0,16 -3,27 -9,35 -7,8 -16,12 -29,13 11,1 20,5 25,11 5,6 8,16 9,31 1,3 1,9 1,15 1,16 3,23 8,23 2,0 4,-1 6,-3 1,-3 2,-7 3,-12l5 1c-1,11 -3,19 -7,24 -4,5 -9,7 -15,7 -8,0 -13,-3 -17,-9 -3,-5 -5,-15 -5,-28 0,-2 0,-4 1,-7 0,-3 0,-6 0,-7 0,-16 -2,-27 -6,-32 -4,-5 -12,-8 -23,-8l-9 0 0 57c0,9 1,16 3,18 1,2 5,4 12,4l0 10c-7,-1 -13,-1 -16,-1 -4,0 -7,0 -9,0 -3,0 -6,0 -10,0 -3,0 -9,0 -17,1l0 -10c7,0 11,-2 13,-4 1,-3 2,-9 2,-18l0 -124c0,-10 -1,-16 -2,-18 -2,-2 -6,-4 -13,-4l0 -10zm186 8c-11,0 -20,7 -26,23 -7,15 -10,36 -10,63 0,27 3,48 10,63 6,15 16,23 28,23 11,0 20,-8 26,-23 7,-16 10,-37 10,-63 0,-27 -3,-48 -10,-64 -6,-15 -16,-22 -28,-22zm1 -11c19,0 34,9 45,27 11,18 17,41 17,70 0,28 -6,51 -18,69 -11,18 -26,27 -44,27 -18,0 -33,-9 -45,-26 -11,-18 -17,-41 -17,-69 0,-29 6,-52 18,-70 11,-19 26,-28 44,-28zm75 3l111 0 3 50 -6 0c-1,-16 -4,-26 -7,-32 -4,-5 -11,-8 -20,-8l-14 0 0 146c0,10 1,16 2,18 2,2 6,4 12,4l2 0 0 10c-5,-1 -10,-1 -14,-1 -5,0 -9,0 -13,0 -2,0 -6,0 -10,0 -4,0 -10,0 -18,1l0 -10 2 0c6,0 10,-2 12,-4 1,-2 2,-8 2,-18l0 -146 -14 0c-9,0 -16,3 -20,8 -4,6 -6,16 -7,32l-6 0 3 -50zm185 8c-11,0 -20,7 -27,23 -6,15 -9,36 -9,63 0,27 3,48 10,63 6,15 15,23 27,23 12,0 21,-8 27,-23 7,-16 10,-37 10,-63 0,-27 -3,-48 -10,-64 -7,-15 -16,-22 -28,-22zm1 -11c19,0 33,9 45,27 11,18 17,41 17,70 0,28 -6,51 -18,69 -12,18 -26,27 -44,27 -19,0 -33,-9 -45,-26 -11,-18 -17,-41 -17,-69 0,-29 6,-52 18,-70 11,-19 26,-28 44,-28z"/>
  </g>
 </g>
</svg>
