<?xml version="1.0" encoding="UTF-8"?>
<!DOCTYPE svg PUBLIC "-//W3C//DTD SVG 1.1//EN" "http://www.w3.org/Graphics/SVG/1.1/DTD/svg11.dtd">
<!-- Creator: CorelDRAW X7 -->
<svg xmlns="http://www.w3.org/2000/svg" xml:space="preserve" width="1.75298in" height="1.21082in" version="1.1" style="shape-rendering:geometricPrecision; text-rendering:geometricPrecision; image-rendering:optimizeQuality; fill-rule:evenodd; clip-rule:evenodd"
viewBox="0 0 1210 836"
 xmlns:xlink="http://www.w3.org/1999/xlink">
 <defs>
  <style type="text/css">
   <![CDATA[
    .fil0 {fill:none}
    .fil1 {fill:#606062;fill-rule:nonzero}
   ]]>
  </style>
 </defs>
 <g id="Layer_x0020_1">
  <metadata id="CorelCorpID_0Corel-Layer"/>
  <rect class="fil0" width="1210" height="836"/>
  <g id="_1460910016912">
   <path class="fil1" d="M375 428l-48 0c14,-4 14,-15 14,-26 0,-35 0,-70 0,-105 0,-2 0,-3 0,-5 -1,-13 -3,-16 -15,-20 1,-2 2,-2 3,-2 18,0 37,-2 55,1 25,4 42,23 45,47 3,19 -1,35 -14,48 -6,7 -14,10 -23,13 0,2 2,2 2,2 11,4 18,12 23,23 2,5 6,10 9,14 3,5 7,8 13,7 -6,8 -21,7 -30,0 -5,-5 -9,-11 -12,-18 -2,-5 -5,-10 -7,-15 -4,-7 -9,-11 -18,-12 8,-3 15,-4 20,-9 9,-8 14,-18 16,-30 3,-18 2,-35 -9,-51 -7,-11 -16,-17 -29,-16 -6,0 -9,2 -10,8 0,2 0,4 0,7 0,39 0,78 0,117 0,2 0,4 0,6 1,8 5,15 16,14 0,0 -1,1 -1,2z"/>
   <path class="fil1" d="M295 357c1,-6 0,-13 -2,-20 -6,-29 -20,-52 -49,-63 -22,-8 -45,-3 -61,14 -11,11 -14,26 -15,42 -2,17 2,35 8,51 10,23 27,41 53,45 24,4 45,-6 57,-27 7,-13 9,-26 9,-42zm19 -8c1,50 -36,83 -83,83 -47,0 -82,-35 -82,-83 0,-49 34,-84 83,-83 48,0 82,33 82,83z"/>
   <path class="fil1" d="M75 378c13,-1 22,-6 28,-16 5,-7 7,-16 9,-25 2,-15 0,-30 -7,-44 -6,-11 -15,-19 -29,-19 -9,0 -11,2 -13,11 0,1 0,2 0,3 0,40 0,80 0,120 0,6 2,12 7,16 3,2 7,0 10,4l-50 0c0,-1 0,-1 0,-2 13,-4 14,-6 14,-19 0,-39 0,-77 0,-115 0,-14 -2,-16 -14,-20 0,-2 1,-2 2,-2 18,0 36,-2 54,1 43,6 59,56 35,88 -10,13 -24,20 -40,22 -2,0 -4,0 -6,-3z"/>
   <path class="fil1" d="M922 270c9,0 18,0 27,0 3,0 4,3 5,5 12,20 24,41 36,62 9,16 18,32 27,48 2,-3 2,-5 2,-7 0,-25 0,-49 0,-74 -1,-13 -2,-25 -15,-33l35 0c-15,8 -16,21 -16,34 0,39 0,78 0,116 0,3 1,8 -2,9 -4,0 -5,-4 -6,-7 -13,-23 -27,-46 -40,-70 -12,-20 -23,-40 -35,-61l0 8c0,32 0,64 0,96 0,6 1,11 3,16 2,6 5,12 12,16l-34 0c14,-9 15,-22 15,-36 0,-31 0,-61 0,-92 0,-4 -1,-9 -1,-13 -2,-7 -7,-12 -13,-15l0 -2z"/>
   <path class="fil1" d="M579 317c-1,-5 0,-10 -1,-15 -4,-18 -17,-26 -34,-30 -32,-8 -64,13 -72,47 -6,24 -3,48 10,69 14,25 48,39 76,31 14,-4 26,-11 36,-23 1,-1 2,-1 3,-2 0,-1 1,0 3,-1 -4,7 -8,12 -13,16 -33,30 -77,31 -110,3 -23,-19 -31,-43 -28,-72 2,-21 9,-37 24,-51 12,-12 27,-19 44,-22 23,-4 44,1 63,13 5,3 7,6 6,12 -3,8 -4,17 -6,25 0,0 -1,0 -1,0z"/>
   <path class="fil1" d="M725 270l50 0c-15,6 -16,7 -16,24 0,40 0,81 0,122 0,8 1,9 9,9 19,0 36,4 54,7 19,3 37,3 55,-4 5,-3 10,-5 15,-9 1,-2 3,-4 6,-4 1,3 -1,4 -2,6 -17,23 -36,32 -67,24 -17,-5 -34,-11 -51,-14 -17,-3 -33,-2 -49,-3 -1,0 -3,1 -4,0 0,-2 1,-2 2,-2 9,-3 13,-7 13,-16 0,-41 0,-81 0,-122 0,-11 -4,-14 -15,-18z"/>
   <path class="fil1" d="M708 390c2,2 2,3 2,4 -2,10 -4,19 -5,29 -1,3 -2,5 -6,5 -30,0 -60,0 -90,0 -1,0 -1,0 -3,-1 17,-3 15,-14 15,-25 1,-35 0,-70 0,-105 0,-2 0,-3 0,-5 0,-13 -2,-16 -14,-20 2,-3 4,-2 6,-2 27,0 53,0 80,0 6,0 8,1 9,7 1,11 4,21 6,32 -4,-2 -4,-5 -5,-7 -5,-19 -17,-28 -37,-28 -6,0 -13,0 -20,0 -4,0 -6,1 -6,5 1,20 1,39 0,59 0,3 2,5 6,5 8,0 17,0 26,0 7,0 10,-5 12,-13 0,-2 -1,-4 2,-7l0 43c0,0 0,0 -1,0 -1,-3 -2,-6 -2,-10 -2,-6 -7,-9 -13,-9 -8,0 -16,0 -24,0 -4,0 -6,2 -6,6 1,20 0,40 1,60 0,8 4,12 12,12 8,0 16,1 23,-1 15,-2 25,-10 29,-24 1,-3 2,-6 3,-10z"/>
   <path class="fil1" d="M811 330c1,14 2,28 9,40 8,14 24,23 37,21 15,-3 26,-13 31,-27 9,-22 9,-45 1,-67 -6,-15 -17,-27 -35,-28 -17,0 -28,10 -36,25 -5,11 -6,23 -7,36zm-19 1c1,-17 4,-33 15,-46 9,-10 20,-16 33,-18 24,-4 45,2 61,21 11,13 15,30 13,47 -1,22 -10,41 -31,52 -19,11 -47,10 -65,-3 -19,-13 -24,-32 -26,-53z"/>
   <path class="fil1" d="M1097 299c-2,7 -3,12 -5,17 -5,17 -11,34 -16,51 -2,5 -1,8 5,7 10,0 19,0 29,0 10,0 10,0 7,-9 -6,-21 -13,-43 -20,-66zm80 129l-61 0c0,-1 0,-2 0,-2 14,-3 17,-9 13,-24 -2,-7 -4,-13 -7,-20 -1,-3 -2,-5 -6,-5 -13,0 -26,0 -39,0 -2,0 -5,1 -5,4 -3,10 -8,20 -8,31 1,11 2,12 12,13 2,1 3,1 4,2 -4,2 -38,2 -45,0 0,-2 2,-1 3,-1 10,0 16,-6 19,-15 10,-20 15,-42 22,-64 8,-24 15,-49 23,-74 1,-2 0,-5 3,-5 2,0 2,3 3,5 10,31 20,63 30,94 5,14 9,29 14,44 4,9 11,15 22,15 1,0 2,0 3,0 0,1 0,1 0,2z"/>
   <path class="fil1" d="M1067 560c-36,0 -72,0 -107,0 -3,0 -5,0 -8,-1 -3,0 -3,-3 -3,-5 0,-3 1,-5 4,-5 7,0 13,0 20,0 67,0 135,0 203,0 3,0 7,-2 8,4 1,5 0,7 -7,7 -28,0 -55,0 -82,0 -10,0 -19,0 -28,0z"/>
   <path class="fil1" d="M143 549c36,0 72,0 108,0 2,0 4,0 6,0 3,0 4,2 4,5 0,2 0,5 -4,5 -1,0 -2,1 -3,1 -74,0 -148,0 -223,0 -3,0 -6,-1 -6,-5 0,-4 1,-6 5,-6 4,0 7,0 11,0 34,0 68,0 102,0z"/>
   <path class="fil1" d="M344 569l-7 -23 -1 0c1,4 1,8 1,9l0 14 -6 0 0 -30 9 0 7 23 0 0 8 -23 9 0 0 30 -6 0 0 -14c0,-1 0,-1 0,-2 0,-1 0,-4 0,-7l0 0 -8 23 -6 0z"/>
   <path class="fil1" d="M377 554c0,4 0,6 2,8 1,2 3,2 5,2 6,0 8,-3 8,-10 0,-7 -2,-10 -8,-10 -2,0 -4,1 -5,3 -2,1 -2,4 -2,7zm22 0c0,5 -1,9 -4,12 -2,3 -6,4 -11,4 -4,0 -8,-1 -10,-4 -3,-3 -4,-7 -4,-12 0,-5 1,-9 4,-11 2,-3 6,-4 10,-4 5,0 9,1 11,4 3,2 4,6 4,11z"/>
   <path class="fil1" d="M412 553l2 0c2,0 3,-1 4,-1 1,-1 2,-2 2,-4 0,-1 -1,-2 -2,-3 -1,0 -2,-1 -4,-1l-2 0 0 9zm0 5l0 11 -7 0 0 -30 9 0c4,0 7,1 9,2 2,2 3,4 3,7 0,2 0,4 -1,5 -1,1 -3,2 -4,3 4,7 7,11 9,13l-8 0 -7 -11 -3 0z"/>
   <polygon class="fil1" points="451,569 433,569 433,539 451,539 451,544 440,544 440,551 450,551 450,556 440,556 440,564 451,564 "/>
   <polygon class="fil1" points="480,569 474,569 474,544 465,544 465,539 488,539 488,544 480,544 "/>
   <polygon class="fil1" points="518,569 512,569 512,556 500,556 500,569 493,569 493,539 500,539 500,551 512,551 512,539 518,539 "/>
   <path class="fil1" d="M541 557c-2,-7 -4,-10 -4,-11 0,-1 0,-2 0,-2 -1,1 -2,6 -4,13l8 0zm3 12l-2 -7 -11 0 -2 7 -7 0 11 -30 8 0 10 30 -7 0z"/>
   <path class="fil1" d="M582 569l-8 0 -13 -23 0 0c0,5 0,7 0,9l0 14 -6 0 0 -30 8 0 14 23 0 0c-1,-4 -1,-7 -1,-9l0 -14 6 0 0 30z"/>
   <path class="fil1" d="M616 557c-2,-7 -3,-10 -4,-11 0,-1 0,-2 0,-2 -1,1 -2,6 -4,13l8 0zm4 12l-3 -7 -11 0 -2 7 -7 0 11 -30 8 0 10 30 -6 0z"/>
   <path class="fil1" d="M648 553l2 0c2,0 3,0 4,-1 1,-1 2,-2 2,-3 0,-2 0,-3 -1,-4 -1,0 -2,-1 -4,-1l-3 0 0 9zm14 -4c0,3 -1,5 -3,7 -2,2 -5,3 -8,3l-3 0 0 10 -7 0 0 -30 10 0c4,0 7,1 9,2 1,2 2,4 2,8z"/>
   <path class="fil1" d="M674 554c0,4 0,6 2,8 1,2 3,2 5,2 5,0 8,-3 8,-10 0,-7 -3,-10 -8,-10 -2,0 -4,1 -5,3 -2,1 -2,4 -2,7zm22 0c0,5 -1,9 -4,12 -2,3 -6,4 -11,4 -4,0 -8,-1 -10,-4 -3,-3 -4,-7 -4,-12 0,-5 1,-9 4,-11 2,-3 6,-4 10,-4 5,0 9,1 11,4 3,2 4,6 4,11z"/>
   <path class="fil1" d="M709 553l2 0c2,0 3,-1 4,-1 1,-1 2,-2 2,-4 0,-1 -1,-2 -2,-3 -1,0 -2,-1 -4,-1l-2 0 0 9zm0 5l0 11 -7 0 0 -30 9 0c4,0 7,1 9,2 2,2 3,4 3,7 0,2 0,4 -1,5 -1,1 -3,2 -4,3 4,7 7,11 8,13l-7 0 -7 -11 -3 0z"/>
   <path class="fil1" d="M743 544c-2,0 -4,1 -5,3 -2,2 -2,4 -2,7 0,7 2,11 7,11 2,0 5,-1 8,-2l0 5c-3,1 -5,2 -8,2 -5,0 -8,-1 -11,-4 -2,-3 -3,-7 -3,-12 0,-3 1,-6 2,-8 1,-2 2,-4 5,-5 2,-2 4,-2 7,-2 3,0 6,0 9,2l-2 5c-1,-1 -2,-1 -3,-1 -2,-1 -3,-1 -4,-1z"/>
   <polygon class="fil1" points="775,569 757,569 757,539 775,539 775,544 764,544 764,551 774,551 774,556 764,556 764,564 775,564 "/>
   <polygon class="fil1" points="781,569 781,539 788,539 788,564 800,564 800,569 "/>
   <path class="fil1" d="M820 557c-2,-7 -3,-10 -3,-11 0,-1 -1,-2 -1,-2 0,1 -1,6 -4,13l8 0zm4 12l-2 -7 -11 0 -2 7 -7 0 10 -30 8 0 11 30 -7 0z"/>
   <polygon class="fil1" points="835,539 841,539 841,569 835,569 "/>
   <path class="fil1" d="M876 569l-8 0 -13 -23 -1 0c1,5 1,7 1,9l0 14 -6 0 0 -30 8 0 13 23 1 0c-1,-4 -1,-7 -1,-9l0 -14 6 0 0 30z"/>
  </g>
 </g>
</svg>
